<svg xmlns="http://www.w3.org/2000/svg" viewBox="0 0 415.35 76.05"><defs><style>.cls-1{fill:#fff;}</style></defs><title>arrow__home</title><g id="Layer_2" data-name="Layer 2"><g id="Layer_2-2" data-name="Layer 2"><path class="cls-1" d="M367.57,42.75A200.41,200.41,0,0,1,395.8,75.32a1.51,1.51,0,0,0,2.59,0l16.79-33.93c.85-1.72-1.73-3.25-2.59-1.51L395.8,73.81h2.59A204.34,204.34,0,0,0,369.7,40.63c-1.42-1.31-3.54.81-2.13,2.12Z"/><path class="cls-1" d="M397.49,56.86c-2.23-18-13.44-33.66-29.06-42.66C349.6,3.35,326.63,3.81,306.32,9.83c-1.85.55-1.06,3.45.8,2.89,19.06-5.65,40.59-6.39,58.52,3.35,15.25,8.29,26.69,23.39,28.85,40.79.23,1.89,3.23,1.92,3,0Z"/><path class="cls-1" d="M0,2.66A2.09,2.09,0,0,1,.25,1.57,2,2,0,0,1,.92.87a3.42,3.42,0,0,1,1-.4A9.35,9.35,0,0,1,3,.29a8.15,8.15,0,0,1,1.1,0h1A9.54,9.54,0,0,1,6.83.43,4.49,4.49,0,0,1,8.39,1,3.49,3.49,0,0,1,9.5,2.18,3.51,3.51,0,0,1,9.93,4a5,5,0,0,1-.38,1.88,8.64,8.64,0,0,1-1,1.79A9.37,9.37,0,0,1,7.24,9.18a11.87,11.87,0,0,1-1.49,1.2,8.76,8.76,0,0,1-1.42.77,2.24,2.24,0,0,1-1.13.22,7.69,7.69,0,0,0-.31,1.79c0,.64-.05,1.26,0,1.87s0,1.19.06,1.74a5.74,5.74,0,0,1-.07,1.42,1.63,1.63,0,0,1-.44.88,1.18,1.18,0,0,1-1,.18c-.13-1-.23-2.05-.29-3.09S1,14.07,1,13s-.09-2-.12-3S.76,8.11.7,7.22.54,5.5.43,4.73A17.8,17.8,0,0,0,0,2.66Zm5.31-.55c-.22,0-.48,0-.8,0a3.93,3.93,0,0,0-.91.14,1.66,1.66,0,0,0-.74.4,1.11,1.11,0,0,0-.3.83V9.13a4.45,4.45,0,0,0,1.87-.47,8.07,8.07,0,0,0,1.8-1.2A6.69,6.69,0,0,0,7.58,5.8,3.57,3.57,0,0,0,8.12,4a1.8,1.8,0,0,0-.25-1,1.65,1.65,0,0,0-.64-.56,2.77,2.77,0,0,0-.89-.23C6,2.12,5.66,2.11,5.31,2.11Z"/><path class="cls-1" d="M10.81,10.61a2.55,2.55,0,0,1,0-.39,1.34,1.34,0,0,1,.08-.37.62.62,0,0,1,.21-.27.64.64,0,0,1,.4-.11c.14,0,.3.12.48.34a5.83,5.83,0,0,1,.55.84c.18.33.37.7.54,1.1s.34.77.48,1.11l.33.87.15.39c.19-.51.39-1,.62-1.64a9.42,9.42,0,0,1,.85-1.64,4.93,4.93,0,0,1,1.21-1.28A2.79,2.79,0,0,1,18.43,9a2.88,2.88,0,0,1,1,.17,2.31,2.31,0,0,1,.82.47,2.61,2.61,0,0,1,.57.74,2.25,2.25,0,0,1,.21,1,.67.67,0,0,1-.37.66,1.87,1.87,0,0,1-.85.2h-.22l-.92-.93a.08.08,0,0,1-.07,0h-.15a1.58,1.58,0,0,0-1.17.42,2.63,2.63,0,0,0-.63,1A5.48,5.48,0,0,0,16.36,14c0,.45-.05.86-.05,1.24a4.4,4.4,0,0,0,.08.87c.06.29.12.58.2.85s.13.57.19.86a4.63,4.63,0,0,1,.09.92c0,.6-.33.9-1,.9a1.66,1.66,0,0,1-1.12-.57,8.25,8.25,0,0,1-1.15-1.45,18.58,18.58,0,0,1-1.08-1.94c-.35-.71-.65-1.4-.91-2.08s-.46-1.28-.61-1.82A5.1,5.1,0,0,1,10.81,10.61Z"/><path class="cls-1" d="M23.89,20.54,24,20l.13-.51-.39-.15a3.36,3.36,0,0,1-1.14-1A4.18,4.18,0,0,1,22,17a6.66,6.66,0,0,1-.2-1.7,5.11,5.11,0,0,1,.62-2.49,6.47,6.47,0,0,1,1.64-2,8,8,0,0,1,2.29-1.3,7.85,7.85,0,0,1,1.8-.43A5.49,5.49,0,0,1,29.5,7.86a2.27,2.27,0,0,1,1.78-.25,17.59,17.59,0,0,1-.75,2.19,4.05,4.05,0,0,1,.67.86,6.51,6.51,0,0,1,.59,1.44,5.29,5.29,0,0,1,.2,1.31,5,5,0,0,1-.58,2.33,7.55,7.55,0,0,1-1.5,2,8.12,8.12,0,0,1-2.09,1.42,5.94,5.94,0,0,1-1.85.5c-.07.28-.13.58-.19.88s-.19.65-.39.72a1.3,1.3,0,0,1-.68,0,2.35,2.35,0,0,1-.53-.22A.65.65,0,0,1,23.89,20.54Zm-.28-5a4.1,4.1,0,0,0,.1,1,1.91,1.91,0,0,0,.33.74,1.92,1.92,0,0,0,.54.41c.1-.39.23-.87.38-1.44s.46-1.48.74-2.28.5-1.32.79-2a10.43,10.43,0,0,0-.9.78,13.56,13.56,0,0,0-1,1,5.86,5.86,0,0,0-.72,1A1.65,1.65,0,0,0,23.61,15.49Zm3.7,1.89a6.2,6.2,0,0,0,1.43-1.13,6,6,0,0,0,1-1.49,3.78,3.78,0,0,0,.38-1.59,5.14,5.14,0,0,0-.06-.75,3,3,0,0,0-.22-.75l-.1-.2c-.09.17-.17.35-.24.52l-1.09,2c-.36.66-.72,1.35-1.06,2.05-.26.53-.5,1.07-.73,1.63A3.53,3.53,0,0,0,27.31,17.38Z"/><path class="cls-1" d="M32.7,8.44c.1-.34.22-.5.35-.47s.31.19.51.49.42.71.68,1.21l.8,1.62c.29.58.6,1.17.94,1.77A14.75,14.75,0,0,0,37,14.72,6.31,6.31,0,0,0,38.19,16a2.48,2.48,0,0,0,1.26.58l1.71-8.89a.42.42,0,0,1,.34-.42,2.75,2.75,0,0,1,.57-.05q1,0,1,.9c0,.31,0,.81-.08,1.5s-.15,1.45-.28,2.27-.29,1.67-.47,2.53a18.86,18.86,0,0,1-.67,2.38,7.39,7.39,0,0,1-.89,1.76,1.41,1.41,0,0,1-1.11.69,3.06,3.06,0,0,1-1.74-.59,7.82,7.82,0,0,1-1.62-1.55,13.87,13.87,0,0,1-1.4-2.14,20.82,20.82,0,0,1-1.09-2.37A17.07,17.07,0,0,1,33,10.27,8.39,8.39,0,0,1,32.7,8.44Z"/><path class="cls-1" d="M44.32,13.66a10.29,10.29,0,0,1,.28-2.32,6.58,6.58,0,0,1,.89-2.08,4.76,4.76,0,0,1,1.59-1.5,4.56,4.56,0,0,1,2.38-.58,3.06,3.06,0,0,1,1.39.29,3,3,0,0,1,1,.76,3.05,3.05,0,0,1,.62,1.1,4.56,4.56,0,0,1,.2,1.33,4.69,4.69,0,0,1-.51,2.12,5.88,5.88,0,0,1-1.35,1.82,5.59,5.59,0,0,1-1.94,1.18,4.08,4.08,0,0,1-2.24.18,1.42,1.42,0,0,0,.42,1,2.72,2.72,0,0,0,1,.57,5,5,0,0,0,1.16.25c.4,0,.76,0,1.07,0a5.46,5.46,0,0,0,.93-.08l.86-.2.87-.19a4.59,4.59,0,0,1,.93-.09l.39,0a1.36,1.36,0,0,1,.36.1.6.6,0,0,1,.28.24A.72.72,0,0,1,55,18a.86.86,0,0,1-.3.67,2.57,2.57,0,0,1-.76.46,4.43,4.43,0,0,1-1,.29,10.75,10.75,0,0,1-1.08.15c-.35,0-.67.06-1,.07h-.65a6.63,6.63,0,0,1-2.47-.44A5.09,5.09,0,0,1,45.87,18a5.17,5.17,0,0,1-1.15-1.89A7.05,7.05,0,0,1,44.32,13.66Zm2.28-1.39a2.29,2.29,0,0,0,.2,1.09c.14.23.47.35,1,.35a3,3,0,0,0,1.1-.21,3.22,3.22,0,0,0,1-.57,2.73,2.73,0,0,0,.69-.86A2.15,2.15,0,0,0,50.83,11a5.29,5.29,0,0,0,0-.67,1.7,1.7,0,0,0-.23-.63,1.41,1.41,0,0,0-.44-.47,1.23,1.23,0,0,0-.7-.19,2.42,2.42,0,0,0-1.17.29,3,3,0,0,0-.89.76,3.55,3.55,0,0,0-.56,1A3.51,3.51,0,0,0,46.6,12.27Z"/><path class="cls-1" d="M65.74,17.1a3.94,3.94,0,0,1,.63-2.21,6.69,6.69,0,0,1,1.54-1.69,10.19,10.19,0,0,1,2-1.22c.72-.34,1.38-.62,2-.84l1.55-.54c.41-.13.62-.24.62-.33A14.17,14.17,0,0,0,74,8.8c0-.48-.1-1-.16-1.45s-.11-1-.16-1.45a13.83,13.83,0,0,1-.07-1.43V3.07c.58-.21,1-.19,1.25.07s.29.7.12,1.33c.06.31.14.81.24,1.48s.21,1.43.33,2.28.25,1.73.39,2.66.26,1.83.38,2.68.23,1.61.31,2.27.16,1.17.2,1.5a4.2,4.2,0,0,1,0,.42c0,.2,0,.43,0,.66s0,.46,0,.66,0,.34,0,.43a5.37,5.37,0,0,1-1.11-.07.48.48,0,0,1-.37-.25,1.66,1.66,0,0,1-.07-.56,3.24,3.24,0,0,0-.22-1,13.53,13.53,0,0,1-1.5,1,8.14,8.14,0,0,1-1.42.65,7.28,7.28,0,0,1-1.43.35,12.35,12.35,0,0,1-1.53.09A8,8,0,0,1,68,19.63a3.31,3.31,0,0,1-1.13-.42,2.33,2.33,0,0,1-.8-.82A2.51,2.51,0,0,1,65.74,17.1Zm1.87-.45a1,1,0,0,0,.15.56,1.35,1.35,0,0,0,.39.36,1.57,1.57,0,0,0,.5.21,3.27,3.27,0,0,0,.53,0,5,5,0,0,0,1.62-.29,5.94,5.94,0,0,0,1.61-.81,4.6,4.6,0,0,0,1.23-1.26,2.85,2.85,0,0,0,.48-1.59,1.35,1.35,0,0,0-.24-.92,1.15,1.15,0,0,0-.9-.26,4.76,4.76,0,0,0-1.6.32,8.42,8.42,0,0,0-1.76.86,5.83,5.83,0,0,0-1.43,1.26A2.35,2.35,0,0,0,67.61,16.65Z"/><path class="cls-1" d="M78.2,13.66a10.29,10.29,0,0,1,.28-2.32,6.81,6.81,0,0,1,.89-2.08A4.76,4.76,0,0,1,81,7.76a4.59,4.59,0,0,1,2.38-.58,3.06,3.06,0,0,1,1.39.29,2.87,2.87,0,0,1,1,.76,3.05,3.05,0,0,1,.62,1.1,4.56,4.56,0,0,1,.2,1.33,4.82,4.82,0,0,1-.5,2.12A6.07,6.07,0,0,1,84.7,14.6a5.59,5.59,0,0,1-1.94,1.18,4.08,4.08,0,0,1-2.24.18,1.42,1.42,0,0,0,.42,1,2.72,2.72,0,0,0,1,.57,5,5,0,0,0,1.16.25c.4,0,.76,0,1.07,0a5.46,5.46,0,0,0,.93-.08l.86-.2.87-.19a4.59,4.59,0,0,1,.93-.09l.39,0a1.36,1.36,0,0,1,.36.1.6.6,0,0,1,.28.24.72.72,0,0,1,.11.4.86.86,0,0,1-.3.67,2.57,2.57,0,0,1-.76.46,4.49,4.49,0,0,1-1,.29c-.38.07-.74.12-1.09.15s-.67.06-1,.07h-.65a6.63,6.63,0,0,1-2.47-.44A5.09,5.09,0,0,1,79.75,18a5.3,5.3,0,0,1-1.15-1.89A7.29,7.29,0,0,1,78.2,13.66Zm2.28-1.39a2.29,2.29,0,0,0,.2,1.09c.14.23.47.35,1,.35a3,3,0,0,0,1.1-.21,3.22,3.22,0,0,0,1-.57,2.91,2.91,0,0,0,.7-.86A2.25,2.25,0,0,0,84.71,11a5.29,5.29,0,0,0,0-.67,1.7,1.7,0,0,0-.23-.63A1.41,1.41,0,0,0,84,9.23a1.23,1.23,0,0,0-.7-.19,2.44,2.44,0,0,0-1.17.29,3.1,3.1,0,0,0-.89.76,3.55,3.55,0,0,0-.56,1A3.51,3.51,0,0,0,80.48,12.27Z"/><path class="cls-1" d="M90.19,12.4a1,1,0,0,1,.28-.81,1.38,1.38,0,0,1,.9-.25h.22c0,.23.09.5.15.8a5.55,5.55,0,0,0,.26.92,5,5,0,0,0,.4.87,2,2,0,0,0,.58.64,3.4,3.4,0,0,1,.38-1.45,5.26,5.26,0,0,1,2-2.17,4.18,4.18,0,0,1,1.26-.51h.47a3.27,3.27,0,0,1,1.76.46,4,4,0,0,1,1.22,1.21,5.83,5.83,0,0,1,.74,1.68,17.36,17.36,0,0,1,.4,1.93,18.16,18.16,0,0,1,.17,1.89c0,.61,0,1.12,0,1.55H99.88c-.09-.86-.19-1.68-.32-2.47,0-.31-.1-.64-.17-1s-.15-.68-.24-1-.18-.6-.28-.86a3.08,3.08,0,0,0-.34-.68l-.23-.24-.29-.3a3,3,0,0,0-.28-.25c-.08-.08-.13-.11-.15-.11a1.16,1.16,0,0,0-1.12.24,3.9,3.9,0,0,0-.83,1.13A7.27,7.27,0,0,0,95,15.25c-.15.61-.28,1.18-.38,1.73s-.17,1-.21,1.44l-.09.74a1.08,1.08,0,0,1-1,.23,2,2,0,0,1-.89-.68,5.22,5.22,0,0,1-.75-1.29,16.49,16.49,0,0,1-.62-1.64c-.18-.58-.35-1.16-.5-1.75S90.31,12.9,90.19,12.4Z"/><path class="cls-1" d="M112.54,12.4a1.05,1.05,0,0,1,.27-.81,1.39,1.39,0,0,1,.91-.25h.21c0,.23.09.5.15.8a6.72,6.72,0,0,0,.26.92,4.36,4.36,0,0,0,.41.87,2,2,0,0,0,.58.64,3.39,3.39,0,0,1,.37-1.45,5.31,5.31,0,0,1,.88-1.25,5.39,5.39,0,0,1,1.17-.92,4.23,4.23,0,0,1,1.25-.51h.47a3.33,3.33,0,0,1,1.77.46,4,4,0,0,1,1.21,1.21,5.83,5.83,0,0,1,.74,1.68,15.35,15.35,0,0,1,.4,1.93,18.16,18.16,0,0,1,.17,1.89c0,.61,0,1.12,0,1.55h-1.57c-.08-.86-.19-1.68-.32-2.47,0-.31-.1-.64-.17-1s-.15-.68-.24-1a7.9,7.9,0,0,0-.28-.86,3.08,3.08,0,0,0-.34-.68l-.22-.24-.29-.3-.28-.25a.54.54,0,0,0-.15-.11,1.15,1.15,0,0,0-1.12.24,3.74,3.74,0,0,0-.84,1.13,7.8,7.8,0,0,0-.59,1.61c-.15.61-.28,1.18-.38,1.73s-.17,1-.21,1.44-.07.66-.09.74a1.08,1.08,0,0,1-1,.23,2,2,0,0,1-.89-.68,5.22,5.22,0,0,1-.75-1.29,16.49,16.49,0,0,1-.61-1.64c-.19-.58-.36-1.16-.51-1.75S112.65,12.9,112.54,12.4Z"/><path class="cls-1" d="M124.61,8.53c0-.13,0-.26,0-.4a1.24,1.24,0,0,1,.09-.38.56.56,0,0,1,.21-.28.69.69,0,0,1,.42-.1h.13l.11,0a5.77,5.77,0,0,1,.71,1.43c.2.58.39,1.2.58,1.85s.38,1.31.6,2a7.44,7.44,0,0,0,.83,1.8,4.27,4.27,0,0,0,1.27,1.27,3.09,3.09,0,0,0,1.87.4.64.64,0,0,0,.65-.53,5.68,5.68,0,0,0,.16-1.38c0-.56,0-1.17-.05-1.85s0-1.31,0-1.92a5.33,5.33,0,0,1,.33-1.6,1.49,1.49,0,0,1,.93-.92,6,6,0,0,1,.46,1.75c.12.79.21,1.71.27,2.75s.09,2.16.09,3.37,0,2.41-.09,3.61-.14,2.34-.26,3.45-.24,2.07-.38,2.9a9.89,9.89,0,0,1-.51,2c-.19.48-.4.69-.61.62a2.93,2.93,0,0,1-.7-1.12,6.88,6.88,0,0,1-.34-1.53,12.6,12.6,0,0,1-.08-1.77c0-.62,0-1.25.08-1.88s.08-1.24.13-1.85.07-1.15.07-1.65a3.7,3.7,0,0,1-1.58-.24,5.78,5.78,0,0,1-1.58-.93A9.88,9.88,0,0,1,127,15.81a10.7,10.7,0,0,1-1.22-2,12.4,12.4,0,0,1-1.13-5.24Z"/><path class="cls-1" d="M135.57,13.66a9.75,9.75,0,0,1,.28-2.32,6.36,6.36,0,0,1,.89-2.08,4.76,4.76,0,0,1,1.59-1.5,4.53,4.53,0,0,1,2.37-.58,3.1,3.1,0,0,1,1.4.29,3.06,3.06,0,0,1,1,.76,3.19,3.19,0,0,1,.61,1.1,4.25,4.25,0,0,1,.2,1.33,4.68,4.68,0,0,1-.5,2.12,6.21,6.21,0,0,1-1.35,1.82,5.73,5.73,0,0,1-1.95,1.18,4,4,0,0,1-2.23.18,1.34,1.34,0,0,0,.42,1,2.59,2.59,0,0,0,.95.57,5,5,0,0,0,1.16.25c.4,0,.76,0,1.08,0a5.34,5.34,0,0,0,.92-.08l.86-.2.87-.19a4.59,4.59,0,0,1,.93-.09l.39,0a1.56,1.56,0,0,1,.37.1.71.71,0,0,1,.28.24.72.72,0,0,1,.1.4.86.86,0,0,1-.3.67,2.44,2.44,0,0,1-.76.46,4.49,4.49,0,0,1-1,.29,10.94,10.94,0,0,1-1.09.15c-.35,0-.67.06-1,.07h-.66a6.63,6.63,0,0,1-2.47-.44A5.09,5.09,0,0,1,137.11,18,5.3,5.3,0,0,1,136,16.12,7.3,7.3,0,0,1,135.57,13.66Zm2.27-1.39a2.16,2.16,0,0,0,.21,1.09c.13.23.47.35,1,.35a3,3,0,0,0,1.09-.21,3.11,3.11,0,0,0,1-.57,2.76,2.76,0,0,0,.7-.86,2.26,2.26,0,0,0,.26-1.07,4,4,0,0,0-.06-.67,1.69,1.69,0,0,0-.22-.63,1.52,1.52,0,0,0-.44-.47,1.26,1.26,0,0,0-.7-.19,2.42,2.42,0,0,0-1.17.29,3,3,0,0,0-.89.76,3.33,3.33,0,0,0-.56,1A3.52,3.52,0,0,0,137.84,12.27Z"/><path class="cls-1" d="M161.58,18.67c.23-.16.51-.36.83-.61s.65-.52,1-.81a8.7,8.7,0,0,0,.92-.9,5.5,5.5,0,0,0,.68-.91,1.79,1.79,0,0,0,.25-.83.77.77,0,0,0-.39-.65q-.69,0-1.5.06c-.55,0-1.09.05-1.64,0a10.2,10.2,0,0,1-1.58-.14,4,4,0,0,1-1.36-.47,2.58,2.58,0,0,1-1-1,3.35,3.35,0,0,1-.35-1.62,5,5,0,0,1,.44-2.1,5.63,5.63,0,0,1,1.17-1.65,9,9,0,0,1,1.64-1.27,15.13,15.13,0,0,1,1.84-.93,2.69,2.69,0,0,1,1,.54,4.39,4.39,0,0,1,.82.85,1.31,1.31,0,0,1-.59.74,5.9,5.9,0,0,1-1,.45l-1.19.4a4.79,4.79,0,0,0-1.13.57,3,3,0,0,0-.85.93,2.86,2.86,0,0,0-.34,1.49,1.31,1.31,0,0,0,.34,1,1.82,1.82,0,0,0,.9.44,5.06,5.06,0,0,0,1.27.09c.47,0,.95-.06,1.45-.1s1-.07,1.45-.07a3.91,3.91,0,0,1,1.27.17,1.65,1.65,0,0,1,1.22,1.79,2.38,2.38,0,0,1-.22.88,8.69,8.69,0,0,1-.61,1.15,10.34,10.34,0,0,1-.88,1.22,9,9,0,0,1-1,1.08,6.51,6.51,0,0,1-1.1.8,2.13,2.13,0,0,1-1,.31.58.58,0,0,1-.59-.33A1.64,1.64,0,0,1,161.58,18.67Z"/><path class="cls-1" d="M170.16,20.54l.13-.54.12-.51-.38-.15a3.18,3.18,0,0,1-1.14-1,4,4,0,0,1-.64-1.4,7.14,7.14,0,0,1-.2-1.7,5.22,5.22,0,0,1,.62-2.49,6.65,6.65,0,0,1,1.65-2,8,8,0,0,1,2.29-1.3,7.85,7.85,0,0,1,1.8-.43,5.46,5.46,0,0,1,1.35-1.23,2.29,2.29,0,0,1,1.79-.25,19.41,19.41,0,0,1-.76,2.19,4.05,4.05,0,0,1,.67.86,5.67,5.67,0,0,1,.59,1.44,4.91,4.91,0,0,1,.21,1.31,5.12,5.12,0,0,1-.58,2.33,7.37,7.37,0,0,1-1.51,2,8.07,8.07,0,0,1-2.08,1.42,6,6,0,0,1-1.85.5c-.07.28-.14.58-.19.88s-.19.65-.39.72a1.33,1.33,0,0,1-.69,0,2.26,2.26,0,0,1-.52-.22A.65.65,0,0,1,170.16,20.54Zm-.28-5a4.74,4.74,0,0,0,.09,1,2.09,2.09,0,0,0,.34.74,2,2,0,0,0,.53.41q.15-.59.39-1.44c.22-.72.46-1.48.73-2.28s.51-1.32.8-2a10.51,10.51,0,0,0-.91.78c-.35.34-.68.68-1,1a4.92,4.92,0,0,0-.72,1A1.65,1.65,0,0,0,169.88,15.49Zm3.69,1.89A6,6,0,0,0,176,14.76a3.65,3.65,0,0,0,.39-1.59,4.11,4.11,0,0,0-.07-.75,3,3,0,0,0-.21-.75l-.11-.2c-.08.17-.16.35-.23.52l-1.09,2c-.37.66-.72,1.35-1.06,2.05-.26.53-.5,1.07-.73,1.63A3.19,3.19,0,0,0,173.57,17.38Z"/><path class="cls-1" d="M184.64,31.07a5.13,5.13,0,0,0,2.15-.44,4.81,4.81,0,0,0,1.6-1.21,5.79,5.79,0,0,0,1-1.74,6.06,6.06,0,0,0,.35-2c0-.36,0-.83-.05-1.42s-.09-1.22-.16-1.91-.18-1.39-.32-2.1a16.29,16.29,0,0,0-.5-2,7.66,7.66,0,0,0-.74-1.68,2.76,2.76,0,0,0-1-1c-.38.29-.74.55-1.1.78a6.37,6.37,0,0,1-1.12.6,7.62,7.62,0,0,1-1.2.37,6.24,6.24,0,0,1-1.33.14,6.53,6.53,0,0,1-1.58-.17,2.64,2.64,0,0,1-1.1-.58,2.43,2.43,0,0,1-.65-1.08,5.58,5.58,0,0,1-.22-1.67,3,3,0,0,1,.35-1.39,5.17,5.17,0,0,1,.91-1.26,8.08,8.08,0,0,1,1.29-1.09,10.53,10.53,0,0,1,1.48-.86,8.69,8.69,0,0,1,1.51-.56,5.18,5.18,0,0,1,1.32-.19c.37,0,.68,0,.92,0a1.61,1.61,0,0,1,.62.17,1.21,1.21,0,0,1,.44.43,4,4,0,0,1,.36.79c.33,1.11.71,2.32,1.14,3.61s.84,2.61,1.22,4,.72,2.73,1,4.12a21.6,21.6,0,0,1,.4,4,7.56,7.56,0,0,1-.49,2.91,5.62,5.62,0,0,1-1.26,2,5.55,5.55,0,0,1-1.79,1.17,7.66,7.66,0,0,1-2,.53,11.66,11.66,0,0,1-2,.05,8.49,8.49,0,0,1-1.63-.25,3.55,3.55,0,0,1-1.05-.42c-.23-.15-.29-.29-.17-.39a2,2,0,0,1,1-.23A15.78,15.78,0,0,1,184.64,31.07Zm.3-20.74a8,8,0,0,0-2.57,1,5,5,0,0,0-1.46,1.31,2.8,2.8,0,0,0-.53,1.4,2,2,0,0,0,.26,1.19,1.81,1.81,0,0,0,2.17.76,4.16,4.16,0,0,0,1.56-1A9,9,0,0,0,186,12.74c0-.24,0-.51,0-.79a2.84,2.84,0,0,0-.07-.79,1.3,1.3,0,0,0-.32-.59A1,1,0,0,0,184.94,10.33Z"/><path class="cls-1" d="M191.53,13.66a10.29,10.29,0,0,1,.28-2.32,6.81,6.81,0,0,1,.89-2.08,4.76,4.76,0,0,1,1.59-1.5,4.59,4.59,0,0,1,2.38-.58,3.06,3.06,0,0,1,1.39.29,2.87,2.87,0,0,1,1,.76,3.05,3.05,0,0,1,.62,1.1,4.56,4.56,0,0,1,.2,1.33,4.82,4.82,0,0,1-.5,2.12A6.07,6.07,0,0,1,198,14.6a5.59,5.59,0,0,1-1.94,1.18,4.08,4.08,0,0,1-2.24.18,1.42,1.42,0,0,0,.42,1,2.72,2.72,0,0,0,1,.57,5,5,0,0,0,1.16.25c.4,0,.76,0,1.07,0a5.46,5.46,0,0,0,.93-.08l.86-.2.87-.19a4.59,4.59,0,0,1,.93-.09l.39,0a1.36,1.36,0,0,1,.36.1.6.6,0,0,1,.28.24.72.72,0,0,1,.11.4.86.86,0,0,1-.3.67,2.57,2.57,0,0,1-.76.46,4.49,4.49,0,0,1-1,.29c-.38.07-.74.12-1.09.15s-.67.06-1,.07h-.65a6.63,6.63,0,0,1-2.47-.44A5.09,5.09,0,0,1,193.08,18a5.3,5.3,0,0,1-1.15-1.89A7.29,7.29,0,0,1,191.53,13.66Zm2.28-1.39a2.29,2.29,0,0,0,.2,1.09c.14.23.47.35,1,.35a3,3,0,0,0,1.1-.21,3.22,3.22,0,0,0,1-.57,2.91,2.91,0,0,0,.7-.86A2.25,2.25,0,0,0,198,11a5.29,5.29,0,0,0,0-.67,1.7,1.7,0,0,0-.23-.63,1.41,1.41,0,0,0-.44-.47,1.22,1.22,0,0,0-.69-.19,2.45,2.45,0,0,0-1.18.29,3.1,3.1,0,0,0-.89.76,3.55,3.55,0,0,0-.56,1A3.8,3.8,0,0,0,193.81,12.27Z"/><path class="cls-1" d="M212.27,21.63a22.18,22.18,0,0,1-1-2.09c-.37-.84-.74-1.71-1.13-2.62s-.79-1.8-1.22-2.68A18.6,18.6,0,0,0,207.65,12a1.42,1.42,0,0,0-.71-.24,7.36,7.36,0,0,0-.95,0c-.33,0-.65,0-1,0a1.92,1.92,0,0,1-.83-.23,1.16,1.16,0,0,1-.53-.6,2.29,2.29,0,0,1-.06-1.18h3.61a19.42,19.42,0,0,1,.36-2.39,12.8,12.8,0,0,1,.7-2.25,11.2,11.2,0,0,1,1.06-2,6.53,6.53,0,0,1,1.51-1.59,6.84,6.84,0,0,1,2-1A8,8,0,0,1,215.47,0a2.33,2.33,0,0,1,1,.25,3.27,3.27,0,0,1,.92.65,3.41,3.41,0,0,1,.66.93,2.39,2.39,0,0,1,.24,1,1.74,1.74,0,0,1-.73-.16,5.63,5.63,0,0,1-.62-.37c-.2-.13-.41-.26-.64-.39a1.66,1.66,0,0,0-.78-.18,5.46,5.46,0,0,0-2.39.52,6.38,6.38,0,0,0-1.94,1.37,6.57,6.57,0,0,0-1.3,2,6.31,6.31,0,0,0-.47,2.41s0,.16,0,.31,0,.31,0,.48,0,.34,0,.5,0,.26,0,.32a9.71,9.71,0,0,0,1.79.38c.66.09,1.32.14,2,.17s1.32,0,1.94,0,1.18-.07,1.66-.11l.24.23a.72.72,0,0,1,.19.26.2.2,0,0,0,0,.09l.05.13a.8.8,0,0,1-.48.71,3.78,3.78,0,0,1-1.2.37,14.81,14.81,0,0,1-1.62.16l-1.72.08-1.48.08a2.37,2.37,0,0,0-.91.21,8,8,0,0,0,1,2.49c.48.8,1,1.6,1.48,2.41a25.13,25.13,0,0,1,1.33,2.42,6,6,0,0,1,.58,2.52h-.4a4.79,4.79,0,0,1-.65,0,2.17,2.17,0,0,1-.66-.19A.51.51,0,0,1,212.27,21.63Z"/><path class="cls-1" d="M218.69,10.87c0-.08,0-.24,0-.46s0-.46,0-.7,0-.47,0-.68,0-.35,0-.44a3.31,3.31,0,0,1,.36-.5,1,1,0,0,1,.43-.34.74.74,0,0,1,.49,0,1.14,1.14,0,0,1,.55.43v.45c0,.08,0,.24-.09.51s-.09.55-.15.87-.11.6-.16.87a3.36,3.36,0,0,0-.07.5,6.87,6.87,0,0,0,.08,1c.06.41.14.84.25,1.28a10.72,10.72,0,0,0,.41,1.33,5.59,5.59,0,0,0,.59,1.2,3.83,3.83,0,0,0,.76.87,1.5,1.5,0,0,0,1,.34,2.08,2.08,0,0,0,1.21-.36,3.63,3.63,0,0,0,.92-.95,6.12,6.12,0,0,0,.63-1.31,13.37,13.37,0,0,0,.4-1.47,13,13,0,0,0,.21-1.43c0-.46.07-.86.07-1.2a6.08,6.08,0,0,0-.08-1c-.05-.31-.11-.61-.18-.91s-.13-.6-.18-.9a4.4,4.4,0,0,1-.08-.89.63.63,0,0,1,.29-.58,1.3,1.3,0,0,1,.66-.17,1,1,0,0,1,.73.27,2,2,0,0,1,.44.68,3.53,3.53,0,0,1,.21.93,9.16,9.16,0,0,1,.05,1c0,.35,0,.67,0,1s0,.56,0,.74a12.92,12.92,0,0,1-.11,1.66,12.46,12.46,0,0,1-.37,1.9,15.07,15.07,0,0,1-.67,1.92,7.5,7.5,0,0,1-1,1.69A4.9,4.9,0,0,1,225,19.23a3.17,3.17,0,0,1-1.67.45,3.12,3.12,0,0,1-1.7-.46A4.12,4.12,0,0,1,220.4,18a7.74,7.74,0,0,1-.85-1.73,12.61,12.61,0,0,1-.53-1.93,18.41,18.41,0,0,1-.26-1.88C218.71,11.84,218.69,11.32,218.69,10.87Z"/><path class="cls-1" d="M229.73,12.4a1.06,1.06,0,0,1,.28-.81,1.38,1.38,0,0,1,.9-.25h.22c0,.23.09.5.15.8a5.55,5.55,0,0,0,.26.92,4.36,4.36,0,0,0,.41.87,1.89,1.89,0,0,0,.58.64,3.39,3.39,0,0,1,.37-1.45,5.26,5.26,0,0,1,2-2.17,4.18,4.18,0,0,1,1.26-.51h.47a3.27,3.27,0,0,1,1.76.46,3.91,3.91,0,0,1,1.22,1.21,5.83,5.83,0,0,1,.74,1.68,17.36,17.36,0,0,1,.4,1.93,18.16,18.16,0,0,1,.17,1.89c0,.61,0,1.12,0,1.55h-1.57c-.08-.86-.19-1.68-.32-2.47,0-.31-.1-.64-.17-1s-.15-.68-.24-1a7.9,7.9,0,0,0-.28-.86,3.08,3.08,0,0,0-.34-.68l-.23-.24-.29-.3a3,3,0,0,0-.28-.25c-.08-.08-.13-.11-.15-.11a1.13,1.13,0,0,0-1.11.24,3.74,3.74,0,0,0-.84,1.13,7.27,7.27,0,0,0-.59,1.61c-.15.61-.28,1.18-.38,1.73s-.17,1-.21,1.44l-.09.74a1.08,1.08,0,0,1-1,.23,2,2,0,0,1-.89-.68,5.22,5.22,0,0,1-.75-1.29,16.49,16.49,0,0,1-.62-1.64c-.18-.58-.35-1.16-.5-1.75S229.85,12.9,229.73,12.4Z"/><path class="cls-1" d="M246.34,19.21c-.23.2-.47.1-.72-.28a8.16,8.16,0,0,1-.76-1.75c-.26-.78-.51-1.72-.77-2.81s-.49-2.24-.71-3.46-.45-2.45-.66-3.7-.39-2.43-.55-3.54c0-.2,0-.4,0-.61a1.81,1.81,0,0,1,.07-.58A1.15,1.15,0,0,1,242.5,2a1.24,1.24,0,0,1,.64-.32s.09,0,.18,0a2.38,2.38,0,0,1,.29.13,1.75,1.75,0,0,1,.27.16.8.8,0,0,1,.16.15A20.86,20.86,0,0,0,245,10a4.42,4.42,0,0,0,.35-.44c.18-.25.42-.55.71-.88s.61-.7,1-1.09a12.78,12.78,0,0,1,1.14-1.07,8.44,8.44,0,0,1,1.21-.83,2.41,2.41,0,0,1,1.16-.33,1.45,1.45,0,0,1,.63.15.57.57,0,0,1,.31.58.3.3,0,0,1,0,.12.89.89,0,0,0,0,.11l-1,.93c-.47.41-1,.88-1.47,1.4s-1,1.05-1.49,1.61a7.77,7.77,0,0,0-1.07,1.59.31.31,0,0,0,0,.22c0,.07,0,.14,0,.23l.75.26,1.14.39,1.33.48c.48.16.92.32,1.33.48l1.13.42.77.27a3.64,3.64,0,0,0,.49.17.85.85,0,0,1,.3.12.38.38,0,0,1,.15.2,1.33,1.33,0,0,1,0,.39.91.91,0,0,1-.3.81,1.56,1.56,0,0,1-.86.2,11.46,11.46,0,0,1-3.24-.7,28.12,28.12,0,0,1-3.22-1.43,2.42,2.42,0,0,0,0,.95c.08.35.18.71.29,1.07s.23.71.33,1a4.11,4.11,0,0,1,.2.93,1.12,1.12,0,0,1-.1.64C246.83,19.13,246.64,19.21,246.34,19.21Z"/><path class="cls-1" d="M254.14,8.81a.36.36,0,0,1,0-.11.65.65,0,0,1,0-.11l.26-.28a.72.72,0,0,1,.21-.17H259a7.36,7.36,0,0,0-.06-.75q-.06-.51-.12-1.14a9.26,9.26,0,0,1,0-1.3,4.54,4.54,0,0,1,.18-1.22,2,2,0,0,1,.52-.9,1.33,1.33,0,0,1,1-.36,16.14,16.14,0,0,0,.3,3.48,5.58,5.58,0,0,0,.8,2,2.35,2.35,0,0,0,1.15.92,3.5,3.5,0,0,0,1.32.19,5.86,5.86,0,0,0,1.32-.21,9.31,9.31,0,0,1,1.15-.23,1.36,1.36,0,0,1,.81.09c.2.11.3.37.3.77a.88.88,0,0,1-.2.64,1.61,1.61,0,0,1-.79.3l-.57.08-.89.09-1.05.1-1.06.1c-.32,0-.63,0-.9,0h-.6c0,.07,0,.19,0,.37a2.69,2.69,0,0,0,0,.34,5.77,5.77,0,0,0,.3,1.84c.2.59.42,1.18.65,1.77s.46,1.17.66,1.76a5.66,5.66,0,0,1,.3,1.83,2.16,2.16,0,0,1,0,.35.83.83,0,0,1-.13.32.62.62,0,0,1-.28.22.77.77,0,0,1-.51,0,1.9,1.9,0,0,1-1.21-.93,5.82,5.82,0,0,1-.59-1.68,16.41,16.41,0,0,1-.26-2.08c0-.73-.11-1.41-.2-2a6.5,6.5,0,0,0-.44-1.63,1.37,1.37,0,0,0-1-.83l-4.15-.94c-.05,0-.14-.06-.25-.19a1.21,1.21,0,0,1-.22-.27.25.25,0,0,1,0-.1A.39.39,0,0,1,254.14,8.81Z"/><path class="cls-1" d="M269.63,3.52a1.68,1.68,0,0,1,.69.56,1.07,1.07,0,0,1,.24.7c0,.21-.18.35-.48.43a2.88,2.88,0,0,1-1.5-.25,2.18,2.18,0,0,1,.22-1A.87.87,0,0,1,269.63,3.52Zm-.3,8.06c0-.09,0-.23,0-.42s0-.4,0-.61,0-.42,0-.62,0-.35,0-.43a1.82,1.82,0,0,1,.61-.56,4.37,4.37,0,0,1,.77-.35,14.3,14.3,0,0,0,.36,2.47c.2.88.42,1.76.65,2.64s.43,1.75.61,2.61a11.76,11.76,0,0,1,.27,2.4.86.86,0,0,1-1,1,1.25,1.25,0,0,1-1-.49,3.94,3.94,0,0,1-.66-1.26,12.2,12.2,0,0,1-.39-1.7c-.1-.62-.17-1.23-.21-1.84s0-1.15-.06-1.65S269.33,11.85,269.33,11.58Z"/><path class="cls-1" d="M273.5,15.28a5.11,5.11,0,0,1,.62-2.49,6.47,6.47,0,0,1,1.64-2,8,8,0,0,1,2.3-1.3A7.33,7.33,0,0,1,280.65,9a2,2,0,0,1,1.3.48,4.15,4.15,0,0,1,1,1.15,6.43,6.43,0,0,1,.59,1.43,5.29,5.29,0,0,1,.2,1.31,5,5,0,0,1-.58,2.33,7.55,7.55,0,0,1-1.5,2,7.81,7.81,0,0,1-2.09,1.4,5.42,5.42,0,0,1-2.32.54,4,4,0,0,1-1.74-.35,3.23,3.23,0,0,1-1.14-.95,4.18,4.18,0,0,1-.63-1.4A6.66,6.66,0,0,1,273.5,15.28Zm1.82.21a4.1,4.1,0,0,0,.1,1,1.72,1.72,0,0,0,.34.72,1.67,1.67,0,0,0,.66.46,2.71,2.71,0,0,0,1,.16,3.29,3.29,0,0,0,1.59-.44,5.9,5.9,0,0,0,1.43-1.12,6,6,0,0,0,1-1.49,3.78,3.78,0,0,0,.38-1.59,5.14,5.14,0,0,0-.06-.75,3,3,0,0,0-.22-.75,1.47,1.47,0,0,0-.43-.58,1,1,0,0,0-.7-.24,2.19,2.19,0,0,0-.92.26,7.73,7.73,0,0,0-1.09.66,10.61,10.61,0,0,0-1.12.93,12,12,0,0,0-1,1,5.86,5.86,0,0,0-.72,1A1.65,1.65,0,0,0,275.32,15.49Z"/><path class="cls-1" d="M284.54,12.4a1,1,0,0,1,.28-.81,1.36,1.36,0,0,1,.9-.25h.22c0,.23.09.5.15.8a5.49,5.49,0,0,0,.25.92,5,5,0,0,0,.41.87,2,2,0,0,0,.58.64,3.4,3.4,0,0,1,.38-1.45,5,5,0,0,1,.88-1.25,5.34,5.34,0,0,1,1.16-.92,4.18,4.18,0,0,1,1.26-.51h.47a3.29,3.29,0,0,1,1.76.46,3.88,3.88,0,0,1,1.21,1.21,5.85,5.85,0,0,1,.75,1.68,15.34,15.34,0,0,1,.39,1.93,15.78,15.78,0,0,1,.17,1.89c0,.61,0,1.12,0,1.55h-1.57c-.09-.86-.19-1.68-.32-2.47-.05-.31-.1-.64-.18-1s-.15-.68-.23-1-.18-.6-.28-.86a3.59,3.59,0,0,0-.34-.68l-.23-.24-.29-.3a3,3,0,0,0-.28-.25.54.54,0,0,0-.15-.11,1.16,1.16,0,0,0-1.12.24,4.11,4.11,0,0,0-.84,1.13,7.8,7.8,0,0,0-.59,1.61c-.15.61-.27,1.18-.37,1.73s-.17,1-.22,1.44-.07.66-.08.74a1.08,1.08,0,0,1-1,.23,1.92,1.92,0,0,1-.89-.68,5.56,5.56,0,0,1-.76-1.29c-.22-.51-.42-1.06-.61-1.64s-.35-1.16-.5-1.75S284.65,12.9,284.54,12.4Z"/></g></g></svg>