<svg xmlns="http://www.w3.org/2000/svg" viewBox="0 0 335.35 79.81"><defs><style>.cls-1{fill:#2962ff;}</style></defs><title>arrow__support</title><g id="Layer_2" data-name="Layer 2"><g id="Layer_2-2" data-name="Layer 2"><path class="cls-1" d="M287.57,46.51A199.57,199.57,0,0,1,315.8,79.08a1.52,1.52,0,0,0,2.59,0l16.79-33.94c.85-1.72-1.73-3.24-2.59-1.51L315.8,77.56h2.59A204.27,204.27,0,0,0,289.7,44.39c-1.42-1.32-3.54.8-2.13,2.12Z"/><path class="cls-1" d="M317.49,60.62C315.26,42.63,304.05,27,288.43,18,269.6,7.1,246.63,7.56,226.32,13.59c-1.85.54-1.06,3.44.8,2.89,19.06-5.66,40.59-6.39,58.52,3.35,15.25,8.29,26.69,23.39,28.85,40.79.23,1.89,3.23,1.91,3,0Z"/><path class="cls-1" d="M0,2.42a2.13,2.13,0,0,1,.25-1.1A2,2,0,0,1,.92.62a3.4,3.4,0,0,1,1-.39A7.65,7.65,0,0,1,3,0a10.2,10.2,0,0,1,1.1,0h1A9.54,9.54,0,0,1,6.83.18,4.5,4.5,0,0,1,8.39.79,3.4,3.4,0,0,1,9.5,1.94a3.49,3.49,0,0,1,.43,1.79,5,5,0,0,1-.38,1.88,8.57,8.57,0,0,1-1,1.78A9.44,9.44,0,0,1,7.24,8.94a12.72,12.72,0,0,1-1.49,1.19,8,8,0,0,1-1.42.77,2.24,2.24,0,0,1-1.13.22,7.88,7.88,0,0,0-.31,1.79c0,.64-.05,1.26,0,1.87s0,1.19.06,1.74a5.71,5.71,0,0,1-.07,1.42,1.56,1.56,0,0,1-.44.88,1.12,1.12,0,0,1-1,.18c-.13-1-.23-2-.29-3.09S1,13.83,1,12.8s-.09-2-.12-3S.76,7.86.7,7,.54,5.25.43,4.48A17.6,17.6,0,0,0,0,2.42Zm5.31-.56-.8,0A4.54,4.54,0,0,0,3.6,2a1.67,1.67,0,0,0-.74.41,1.1,1.1,0,0,0-.3.83V8.89a4.32,4.32,0,0,0,1.87-.48,7.44,7.44,0,0,0,1.8-1.2A6.83,6.83,0,0,0,7.58,5.56a3.63,3.63,0,0,0,.54-1.83,1.78,1.78,0,0,0-.25-1,1.57,1.57,0,0,0-.64-.56,2.54,2.54,0,0,0-.89-.24C6,1.87,5.66,1.86,5.31,1.86Z"/><path class="cls-1" d="M10.81,10.37a2.75,2.75,0,0,1,0-.4,1.2,1.2,0,0,1,.08-.36.62.62,0,0,1,.21-.27.64.64,0,0,1,.4-.11q.21,0,.48.33a5.83,5.83,0,0,1,.55.84c.18.34.37.71.54,1.11s.34.77.48,1.1l.33.87a4,4,0,0,0,.15.39c.19-.5.39-1,.62-1.63a9.17,9.17,0,0,1,.85-1.65,5.05,5.05,0,0,1,1.21-1.27,2.73,2.73,0,0,1,1.7-.52,2.88,2.88,0,0,1,1,.16,2.66,2.66,0,0,1,.82.47,2.76,2.76,0,0,1,.57.74,2.25,2.25,0,0,1,.21,1,.69.69,0,0,1-.37.67,1.86,1.86,0,0,1-.85.19h-.22l-.92-.92-.07,0h-.15a1.62,1.62,0,0,0-1.17.41,2.67,2.67,0,0,0-.63,1,5.29,5.29,0,0,0-.27,1.28c0,.46-.05.87-.05,1.24a4.27,4.27,0,0,0,.08.87c.06.29.12.58.2.86s.13.57.19.86a4.53,4.53,0,0,1,.09.91c0,.6-.33.9-1,.9a1.66,1.66,0,0,1-1.12-.57,7.89,7.89,0,0,1-1.15-1.45,16.74,16.74,0,0,1-1.08-1.94c-.35-.71-.65-1.4-.91-2.07s-.46-1.28-.61-1.83A5,5,0,0,1,10.81,10.37Z"/><path class="cls-1" d="M23.89,20.29l.13-.53.13-.52a2.89,2.89,0,0,1-1.53-1.11A4.13,4.13,0,0,1,22,16.74a6.79,6.79,0,0,1-.2-1.71,5.07,5.07,0,0,1,.62-2.48,6.39,6.39,0,0,1,1.64-2,8.19,8.19,0,0,1,2.29-1.3,8.41,8.41,0,0,1,1.8-.43A5.25,5.25,0,0,1,29.5,7.62a2.27,2.27,0,0,1,1.78-.26,17.59,17.59,0,0,1-.75,2.19,4.63,4.63,0,0,1,.67.86,6.92,6.92,0,0,1,.59,1.44,5.36,5.36,0,0,1,.2,1.31,5,5,0,0,1-.58,2.33,7.55,7.55,0,0,1-1.5,2,8.16,8.16,0,0,1-2.09,1.43,5.92,5.92,0,0,1-1.85.49c-.07.29-.13.58-.19.88s-.19.66-.39.72a1.2,1.2,0,0,1-.68,0,2,2,0,0,1-.53-.21A.69.69,0,0,1,23.89,20.29Zm-.28-5a4,4,0,0,0,.1,1A1.85,1.85,0,0,0,24,17a1.75,1.75,0,0,0,.54.41c.1-.38.23-.86.38-1.44s.46-1.47.74-2.28c.24-.65.5-1.31.79-2-.3.23-.6.49-.9.77s-.69.69-1,1a6.78,6.78,0,0,0-.72,1A1.69,1.69,0,0,0,23.61,15.24Zm3.7,1.9A6.48,6.48,0,0,0,28.74,16a5.85,5.85,0,0,0,1-1.5,3.78,3.78,0,0,0,.38-1.59,5.36,5.36,0,0,0-.06-.75,3,3,0,0,0-.22-.75l-.1-.19q-.14.25-.24.51l-1.09,2c-.36.67-.72,1.35-1.06,2-.26.53-.5,1.08-.73,1.63A4.27,4.27,0,0,0,27.31,17.14Z"/><path class="cls-1" d="M32.7,8.2c.1-.35.22-.5.35-.47s.31.19.51.49a13.51,13.51,0,0,1,.68,1.2L35,11c.29.58.6,1.18.94,1.78A14.59,14.59,0,0,0,37,14.47a6.38,6.38,0,0,0,1.16,1.25,2.57,2.57,0,0,0,1.26.58l1.71-8.9A.42.42,0,0,1,41.5,7a3.66,3.66,0,0,1,.57-.05q1,0,1,.9c0,.32,0,.82-.08,1.51s-.15,1.44-.28,2.26-.29,1.67-.47,2.54a18.22,18.22,0,0,1-.67,2.37,7,7,0,0,1-.89,1.76,1.41,1.41,0,0,1-1.11.69,3.06,3.06,0,0,1-1.74-.59,7.57,7.57,0,0,1-1.62-1.55,13.76,13.76,0,0,1-1.4-2.13,20.18,20.18,0,0,1-1.09-2.38A16.63,16.63,0,0,1,33,10,8.32,8.32,0,0,1,32.7,8.2Z"/><path class="cls-1" d="M54.1,8.2c.1-.35.22-.5.35-.47s.31.19.51.49a11.57,11.57,0,0,1,.67,1.2L56.44,11c.29.58.6,1.18.93,1.78a16.17,16.17,0,0,0,1.06,1.65,6.38,6.38,0,0,0,1.16,1.25,2.54,2.54,0,0,0,1.25.58l1.72-8.9A.42.42,0,0,1,62.9,7a3.64,3.64,0,0,1,.56-.05c.65,0,1,.3,1,.9,0,.32,0,.82-.08,1.51s-.15,1.44-.28,2.26-.29,1.67-.48,2.54a16.81,16.81,0,0,1-.66,2.37A7,7,0,0,1,62,18.27a1.41,1.41,0,0,1-1.11.69,3.06,3.06,0,0,1-1.74-.59,7.57,7.57,0,0,1-1.62-1.55,13.76,13.76,0,0,1-1.4-2.13,20.18,20.18,0,0,1-1.09-2.38A16.63,16.63,0,0,1,54.36,10,7.75,7.75,0,0,1,54.1,8.2Z"/><path class="cls-1" d="M65.72,15a5.18,5.18,0,0,1,.62-2.48,6.57,6.57,0,0,1,1.65-2,8.11,8.11,0,0,1,2.3-1.3,7.5,7.5,0,0,1,2.59-.47,2,2,0,0,1,1.29.47,4.3,4.3,0,0,1,1,1.15,5.75,5.75,0,0,1,.59,1.43,5,5,0,0,1,.21,1.31,5.12,5.12,0,0,1-.58,2.33,7.37,7.37,0,0,1-1.51,2,7.79,7.79,0,0,1-2.08,1.41,5.47,5.47,0,0,1-2.32.53,3.8,3.8,0,0,1-1.74-.35,3,3,0,0,1-1.14-.95,4,4,0,0,1-.64-1.39A7.28,7.28,0,0,1,65.72,15Zm1.83.21a4.67,4.67,0,0,0,.09,1,1.73,1.73,0,0,0,.35.72,1.48,1.48,0,0,0,.65.46,2.7,2.7,0,0,0,1,.17,3.2,3.2,0,0,0,1.59-.45A5.67,5.67,0,0,0,72.67,16a5.85,5.85,0,0,0,1-1.5,3.65,3.65,0,0,0,.39-1.59,4.27,4.27,0,0,0-.07-.75,3,3,0,0,0-.21-.75,1.55,1.55,0,0,0-.43-.58,1.05,1.05,0,0,0-.71-.24,2.15,2.15,0,0,0-.91.26,7.92,7.92,0,0,0-1.1.67,11.59,11.59,0,0,0-1.12.92c-.36.35-.69.69-1,1a5.56,5.56,0,0,0-.72,1A1.69,1.69,0,0,0,67.55,15.24Z"/><path class="cls-1" d="M76.76,10.37a2.8,2.8,0,0,1,0-.4,1.2,1.2,0,0,1,.08-.36.56.56,0,0,1,.21-.27.62.62,0,0,1,.39-.11c.15,0,.31.11.49.33a5.86,5.86,0,0,1,.54.84c.19.34.37.71.55,1.11s.34.77.47,1.1.25.63.34.87a1.56,1.56,0,0,0,.15.39c.18-.5.39-1,.62-1.63a8.57,8.57,0,0,1,.85-1.65,5.2,5.2,0,0,1,1.2-1.27,2.78,2.78,0,0,1,1.71-.52,2.92,2.92,0,0,1,1,.16,2.5,2.5,0,0,1,.81.47,2.41,2.41,0,0,1,.57.74,2.12,2.12,0,0,1,.22,1,.69.69,0,0,1-.38.67,1.8,1.8,0,0,1-.85.19h-.21l-.92-.92-.07,0h-.15a1.62,1.62,0,0,0-1.17.41,2.67,2.67,0,0,0-.63,1,4.49,4.49,0,0,0-.27,1.28c0,.46-.06.87-.06,1.24a4.28,4.28,0,0,0,.09.87c.06.29.12.58.19.86s.14.57.2.86a5.4,5.4,0,0,1,.08.91q0,.9-1,.9a1.66,1.66,0,0,1-1.12-.57,7.89,7.89,0,0,1-1.15-1.45,18.37,18.37,0,0,1-1.09-1.94q-.51-1.07-.9-2.07c-.26-.68-.46-1.28-.61-1.83A5.1,5.1,0,0,1,76.76,10.37Z"/><path class="cls-1" d="M87.74,13.42A9.68,9.68,0,0,1,88,11.1,6.54,6.54,0,0,1,88.91,9a5,5,0,0,1,1.59-1.5,4.56,4.56,0,0,1,2.38-.58,3.2,3.2,0,0,1,1.39.29,3.09,3.09,0,0,1,1,.76,3.18,3.18,0,0,1,.62,1.11,4.44,4.44,0,0,1,.2,1.32,4.77,4.77,0,0,1-.51,2.13,5.84,5.84,0,0,1-1.35,1.81,5.45,5.45,0,0,1-1.94,1.18,4.18,4.18,0,0,1-2.24.19,1.44,1.44,0,0,0,.42,1,2.64,2.64,0,0,0,1,.57,5,5,0,0,0,1.16.24c.4,0,.76.06,1.07.06a4.59,4.59,0,0,0,.93-.09l.86-.19.87-.2a5.46,5.46,0,0,1,.93-.08l.39,0a1.07,1.07,0,0,1,.36.1.63.63,0,0,1,.28.23.72.72,0,0,1,.11.4.88.88,0,0,1-.3.68,2.71,2.71,0,0,1-.77.46,4.72,4.72,0,0,1-1,.29l-1.08.15c-.35,0-.67.06-1,.06h-.65A6.44,6.44,0,0,1,91.14,19a5.06,5.06,0,0,1-3-3.11A7.13,7.13,0,0,1,87.74,13.42ZM90,12a2.34,2.34,0,0,0,.2,1.1c.14.23.47.34,1,.34a3.24,3.24,0,0,0,1.1-.2,3.7,3.7,0,0,0,1-.57,2.73,2.73,0,0,0,.69-.86,2.21,2.21,0,0,0,.26-1.08,5.14,5.14,0,0,0,0-.66A1.82,1.82,0,0,0,94,9.45,1.41,1.41,0,0,0,93.53,9a1.23,1.23,0,0,0-.7-.18,2.42,2.42,0,0,0-1.17.29,2.81,2.81,0,0,0-.89.75A3.51,3.51,0,0,0,90,12Z"/><path class="cls-1" d="M103.86,18.42c.22-.15.5-.36.82-.61s.65-.52,1-.8a9.89,9.89,0,0,0,.92-.91,4.39,4.39,0,0,0,.68-.91,1.65,1.65,0,0,0,.25-.83.76.76,0,0,0-.39-.64c-.46,0-1,0-1.5,0s-1.09.05-1.64.05a11.31,11.31,0,0,1-1.57-.14A4.2,4.2,0,0,1,101,13.2a2.56,2.56,0,0,1-1-1,3.42,3.42,0,0,1-.35-1.63,4.89,4.89,0,0,1,.44-2.09,5.63,5.63,0,0,1,1.17-1.65A8.62,8.62,0,0,1,103,5.59a13.79,13.79,0,0,1,1.83-.94,2.69,2.69,0,0,1,1,.54,4.44,4.44,0,0,1,.82.86,1.29,1.29,0,0,1-.59.73,5.57,5.57,0,0,1-1,.45l-1.19.41a4.28,4.28,0,0,0-1.13.57,3,3,0,0,0-.85.92,2.87,2.87,0,0,0-.34,1.5,1.34,1.34,0,0,0,.34,1,1.91,1.91,0,0,0,.9.44,5.62,5.62,0,0,0,1.27.08l1.45-.09C106,12,106.5,12,107,12a3.87,3.87,0,0,1,1.27.17,1.87,1.87,0,0,1,.89.59,1.92,1.92,0,0,1,.33,1.21,2.38,2.38,0,0,1-.22.88,8.55,8.55,0,0,1-.6,1.15,11.68,11.68,0,0,1-.89,1.21,9,9,0,0,1-1,1.08,6.31,6.31,0,0,1-1.09.8,2.09,2.09,0,0,1-1,.31.58.58,0,0,1-.59-.32A1.52,1.52,0,0,1,103.86,18.42Z"/><path class="cls-1" d="M120.23,12.15a1,1,0,0,1,.28-.8,1.29,1.29,0,0,1,.9-.25h.21c0,.23.1.49.15.79a7.27,7.27,0,0,0,.26.93,5.8,5.8,0,0,0,.41.87,2.07,2.07,0,0,0,.58.63,3.3,3.3,0,0,1,.38-1.45,5.22,5.22,0,0,1,.88-1.25,5.4,5.4,0,0,1,1.16-.92,3.94,3.94,0,0,1,1.25-.5h.48a3.23,3.23,0,0,1,1.76.46,4.07,4.07,0,0,1,1.21,1.2,6,6,0,0,1,.74,1.69,15.58,15.58,0,0,1,.4,1.92,18.16,18.16,0,0,1,.17,1.89q0,.91,0,1.56h-1.56c-.09-.86-.2-1.68-.33-2.47,0-.32-.1-.65-.17-1s-.15-.68-.23-1-.18-.59-.28-.86a3.32,3.32,0,0,0-.35-.68,2.58,2.58,0,0,1-.22-.23l-.29-.3-.28-.26-.15-.11a1.15,1.15,0,0,0-1.12.25,3.78,3.78,0,0,0-.84,1.13,7.6,7.6,0,0,0-.59,1.61c-.15.6-.27,1.18-.37,1.73s-.18,1-.22,1.44-.07.65-.09.74a1.06,1.06,0,0,1-1,.22,2,2,0,0,1-.89-.67,5.62,5.62,0,0,1-.75-1.29c-.22-.52-.43-1.07-.61-1.65s-.36-1.16-.51-1.75S120.34,12.65,120.23,12.15Z"/><path class="cls-1" d="M132.3,8.28c0-.13,0-.26,0-.39a1.24,1.24,0,0,1,.09-.39.61.61,0,0,1,.21-.28.79.79,0,0,1,.42-.1h.13l.11,0A5.37,5.37,0,0,1,134,8.57c.2.58.39,1.2.58,1.85s.38,1.31.6,2a7.19,7.19,0,0,0,.84,1.79,4.13,4.13,0,0,0,1.26,1.27,3.1,3.1,0,0,0,1.87.41.64.64,0,0,0,.65-.54,5.66,5.66,0,0,0,.16-1.37c0-.56,0-1.18,0-1.85a15.36,15.36,0,0,1,0-1.92,5.11,5.11,0,0,1,.32-1.61,1.54,1.54,0,0,1,.93-.92,6.13,6.13,0,0,1,.46,1.75,24.62,24.62,0,0,1,.27,2.75c.06,1,.09,2.16.09,3.37s0,2.42-.09,3.61-.14,2.35-.25,3.45-.25,2.07-.39,2.9a10,10,0,0,1-.51,2c-.19.48-.39.68-.61.61a2.93,2.93,0,0,1-.7-1.12,6.66,6.66,0,0,1-.34-1.52,12.67,12.67,0,0,1-.08-1.77c0-.63,0-1.25.08-1.88s.08-1.25.13-1.85.07-1.15.07-1.66A3.54,3.54,0,0,1,137.7,18a5.41,5.41,0,0,1-1.57-.94,9.4,9.4,0,0,1-1.48-1.53,10.7,10.7,0,0,1-1.22-2,12.4,12.4,0,0,1-1.13-5.25Z"/><path class="cls-1" d="M143.26,13.42a9.68,9.68,0,0,1,.28-2.32A6.32,6.32,0,0,1,144.43,9,5,5,0,0,1,146,7.51a4.53,4.53,0,0,1,2.37-.58,3.24,3.24,0,0,1,1.4.29,3.09,3.09,0,0,1,1,.76,3.33,3.33,0,0,1,.61,1.11,4.15,4.15,0,0,1,.21,1.32,4.77,4.77,0,0,1-.51,2.13,6.17,6.17,0,0,1-1.35,1.81,5.58,5.58,0,0,1-1.95,1.18,4.14,4.14,0,0,1-2.23.19,1.36,1.36,0,0,0,.42,1,2.59,2.59,0,0,0,.95.57,5.09,5.09,0,0,0,1.16.24q.6.06,1.08.06a4.49,4.49,0,0,0,.92-.09l.86-.19.87-.2a5.58,5.58,0,0,1,.94-.08l.38,0a1.2,1.2,0,0,1,.37.1.77.77,0,0,1,.28.23.72.72,0,0,1,.1.4.88.88,0,0,1-.3.68,2.65,2.65,0,0,1-.76.46,5.07,5.07,0,0,1-1,.29l-1.08.15c-.36,0-.68.06-1,.06h-.66a6.47,6.47,0,0,1-2.47-.44,5.28,5.28,0,0,1-1.85-1.22,5.15,5.15,0,0,1-1.14-1.89A7.13,7.13,0,0,1,143.26,13.42Zm2.28-1.4a2.22,2.22,0,0,0,.2,1.1c.14.23.47.34,1,.34a3.14,3.14,0,0,0,1.09-.2,3.54,3.54,0,0,0,1-.57,2.76,2.76,0,0,0,.7-.86,2.33,2.33,0,0,0,.26-1.08,3.85,3.85,0,0,0-.06-.66,1.8,1.8,0,0,0-.22-.64,1.52,1.52,0,0,0-.44-.47,1.23,1.23,0,0,0-.7-.18,2.42,2.42,0,0,0-1.17.29,2.81,2.81,0,0,0-.89.75,3.33,3.33,0,0,0-.56,1A3.55,3.55,0,0,0,145.54,12Z"/><path class="cls-1" d="M164.72,12.92a5,5,0,0,1,.4-1.89,6.88,6.88,0,0,1,1.06-1.79,6.32,6.32,0,0,1,1.54-1.34,3.42,3.42,0,0,1,1.83-.54,3.12,3.12,0,0,1,1,.17,2.88,2.88,0,0,1,.89.5,2.54,2.54,0,0,1,.65.77,2.13,2.13,0,0,1,.25,1,2.53,2.53,0,0,1-.7-.09,4.35,4.35,0,0,1-.61-.2,5.27,5.27,0,0,0-.6-.2,2.08,2.08,0,0,0-.63-.09,2.24,2.24,0,0,0-1.43.44,3.21,3.21,0,0,0-.87,1.11,5.22,5.22,0,0,0-.44,1.42,9.29,9.29,0,0,0-.12,1.43c0,.08,0,.21,0,.41s0,.41,0,.64,0,.43,0,.63a1.82,1.82,0,0,0,0,.41,3.84,3.84,0,0,0,.46.79,1.54,1.54,0,0,0,.48.42,1.58,1.58,0,0,0,.56.17,7,7,0,0,0,.71,0,2.48,2.48,0,0,0,1-.18,4.77,4.77,0,0,0,.78-.4,5.25,5.25,0,0,0,.69-.53c.22-.19.44-.37.68-.54a3.76,3.76,0,0,1,.77-.41,2.84,2.84,0,0,1,1-.16,4.43,4.43,0,0,1-.38,1.87,4,4,0,0,1-1.05,1.4,4.93,4.93,0,0,1-1.59.89,6.06,6.06,0,0,1-2,.31,2.7,2.7,0,0,1-1.81-.69A6.18,6.18,0,0,1,165.89,17,8.93,8.93,0,0,1,165,14.9,7.69,7.69,0,0,1,164.72,12.92Z"/><path class="cls-1" d="M175.91,5.43a3.56,3.56,0,0,1,.06-.59,2.53,2.53,0,0,1,.19-.68,1.64,1.64,0,0,1,.36-.55.71.71,0,0,1,.55-.22l.11,0,.11,0a12.32,12.32,0,0,1,.43,2.64,19.59,19.59,0,0,1,0,2.55c-.08.82-.18,1.62-.33,2.38s-.26,1.47-.35,2.12-.15,1.22-.17,1.74a2.8,2.8,0,0,0,.22,1.31c0-.23,0-.51-.05-.83a5,5,0,0,1,.08-1,5.13,5.13,0,0,1,.33-1,2.91,2.91,0,0,1,.65-.92,3.16,3.16,0,0,1,1.11-.65,5.39,5.39,0,0,1,1.69-.23,4.2,4.2,0,0,1,1.81.36,3.56,3.56,0,0,1,1.26,1,4.47,4.47,0,0,1,.74,1.48,6.67,6.67,0,0,1,.25,1.82c0,.3,0,.64,0,1a3.85,3.85,0,0,1-.16,1,1.72,1.72,0,0,1-.49.82,1.48,1.48,0,0,1-1,.33c0-.23,0-.54,0-.93s.05-.82.06-1.26,0-.9,0-1.35a3.7,3.7,0,0,0-.29-1.24,2.48,2.48,0,0,0-.65-.9,1.72,1.72,0,0,0-1.15-.36,5.45,5.45,0,0,0-.64,0,2.45,2.45,0,0,0-.76.2,2.58,2.58,0,0,0-.75.53,2.44,2.44,0,0,0-.58,1,5.39,5.39,0,0,0-.25,1.55,10.89,10.89,0,0,0,.23,2.29c-.1.26-.23.41-.38.45a2.26,2.26,0,0,1-.57.06,1.47,1.47,0,0,1-1.13-.48,3.13,3.13,0,0,1-.67-1.3,8.87,8.87,0,0,1-.31-1.89c-.05-.72-.07-1.46-.06-2.24s.06-1.58.12-2.39.13-1.57.19-2.3.13-1.38.2-2S175.91,5.78,175.91,5.43Z"/><path class="cls-1" d="M195,16.62c-.54.37-1,.71-1.4,1a10.48,10.48,0,0,1-1.15.74,4.94,4.94,0,0,1-1.2.45,6.83,6.83,0,0,1-1.55.15,3.83,3.83,0,0,1-3-1.06,4.6,4.6,0,0,1-1-3.17A7.38,7.38,0,0,1,186,13a8.78,8.78,0,0,1,.63-1.75,10.66,10.66,0,0,1,1-1.65,7.89,7.89,0,0,1,1.31-1.39,6.7,6.7,0,0,1,1.56-1,4.52,4.52,0,0,1,1.75-.35,5.09,5.09,0,0,1,2.43.76A3.88,3.88,0,0,1,196,9.26a7.78,7.78,0,0,1,.63,2.13c.11.78.2,1.58.26,2.42s.15,1.66.25,2.49a8.12,8.12,0,0,0,.62,2.3,3.88,3.88,0,0,1-.52,1,.38.38,0,0,1-.55.09,2.68,2.68,0,0,1-.7-.94C195.73,18.25,195.4,17.54,195,16.62Zm-7.41-1.85a2.9,2.9,0,0,0,.46,1.8,2,2,0,0,0,1.65.57,4.56,4.56,0,0,0,1.68-.32,4.25,4.25,0,0,0,2.38-2.18,4,4,0,0,0,.36-1.72c0-.25,0-.61,0-1.08a7.16,7.16,0,0,0-.08-1.39,3.35,3.35,0,0,0-.41-1.19,1,1,0,0,0-.9-.5,3.9,3.9,0,0,0-2.06.57,5.83,5.83,0,0,0-1.64,1.45A6.92,6.92,0,0,0,188,12.72,5.94,5.94,0,0,0,187.6,14.77Z"/><path class="cls-1" d="M198.64,8.56a.15.15,0,0,1,0-.1.23.23,0,0,1,0-.11,2,2,0,0,1,.26-.28c.11-.12.18-.17.21-.17h4.32a5.54,5.54,0,0,0-.07-.75c0-.35-.08-.73-.11-1.14a11.08,11.08,0,0,1,0-1.3,5.12,5.12,0,0,1,.19-1.23,2.1,2.1,0,0,1,.51-.9,1.34,1.34,0,0,1,1-.35,16.27,16.27,0,0,0,.3,3.48,5.73,5.73,0,0,0,.81,2,2.31,2.31,0,0,0,1.15.92,3.7,3.7,0,0,0,1.32.18,6.48,6.48,0,0,0,1.32-.2A7.65,7.65,0,0,1,211,8.39a1.32,1.32,0,0,1,.8.1c.2.11.31.36.31.76a.86.86,0,0,1-.21.65,1.84,1.84,0,0,1-.78.3l-.57.07-.89.1-1.06.09-1.05.1c-.33,0-.63,0-.9,0l-.6,0c0,.07,0,.19,0,.36s0,.29,0,.34a5.68,5.68,0,0,0,.3,1.84q.3.9.66,1.77c.24.59.45,1.18.66,1.77a5.56,5.56,0,0,1,.3,1.82,1.53,1.53,0,0,1,0,.36.7.7,0,0,1-.13.32.58.58,0,0,1-.27.21.77.77,0,0,1-.51,0,1.86,1.86,0,0,1-1.21-.92,5.43,5.43,0,0,1-.59-1.69,14.63,14.63,0,0,1-.26-2.07,20.25,20.25,0,0,0-.21-2.05,6.18,6.18,0,0,0-.44-1.64,1.34,1.34,0,0,0-1-.82l-4.15-.95c-.06,0-.14-.06-.26-.18a1.42,1.42,0,0,1-.21-.27.18.18,0,0,1,0-.11A.23.23,0,0,1,198.64,8.56Z"/></g></g></svg>