<svg xmlns="http://www.w3.org/2000/svg" viewBox="0 0 349.99 77.09"><defs><style>.cls-1{fill:#2962ff;}</style></defs><title>hand__arrow__support</title><g id="Layer_2" data-name="Layer 2"><g id="Layer_2-2" data-name="Layer 2"><path class="cls-1" d="M302.21,43.79a200.41,200.41,0,0,1,28.23,32.57,1.51,1.51,0,0,0,2.59,0l16.79-33.93c.85-1.72-1.73-3.25-2.59-1.51L330.44,74.85H333a203.91,203.91,0,0,0-28.7-33.18c-1.41-1.31-3.53.81-2.12,2.12Z"/><path class="cls-1" d="M332.13,57.9c-2.23-18-13.44-33.66-29.06-42.66C284.24,4.39,261.26,4.85,241,10.87c-1.85.55-1.06,3.45.8,2.89,19.06-5.65,40.59-6.39,58.51,3.35C315.53,25.4,327,40.5,329.13,57.9c.23,1.89,3.23,1.92,3,0Z"/><path class="cls-1" d="M1.2,2c1.85.1,3.3.14,4.34.14l.3.46c0,.61-.28.91-.85.91-1.17,0-2.32-.07-3.43-.07l.32,8.2v.05l0,.45a12.4,12.4,0,0,1,1.66-.09H5.35c.34,0,.56.29.65.87l-.62.5H3.3A4.27,4.27,0,0,1,2,13.38v.75q0,1,.13,8.21v.73l.07.41c0,.29,0,.43,0,.43l0,.32V25c0,.19-.17.37-.51.55H1.38c-.25,0-.48-.18-.7-.53L.43,10.92l-.29-.68.13.27C.09,6.9,0,4.2,0,2.43A2,2,0,0,1,1.2,2Z"/><path class="cls-1" d="M11.18,2h.27c.6,0,.91,1.32.91,4v.89c0,.9-.14,3.2-.41,6.92a2.25,2.25,0,0,0,.06.49C12,16.66,12,18.56,12,20V24.4a4.64,4.64,0,0,0,.13.67c-.09.56-.32.84-.7.84h-.27c-.47,0-.7-.73-.7-2.19q0-11.88.41-16.35V5.47a17.84,17.84,0,0,0-.21-2.86Q10.61,2.33,11.18,2Z"/><path class="cls-1" d="M17.43,1.62q.72,0,3.52,9.61.39,2.19,3.22,10.78H23.6v-.24q-.39-8.3-.39-9.33c0-.2,0-.9.08-2.08,0-.13,0-.4,0-.82.09-.9.13-1.62.13-2.14V2.53q.09-.72.93-.72l.71.38q-.19,4.05-.2,6v1.93q0,5.94.37,15.53l-.68.34q-.86,0-5.38-15.41l-1.8-6.12.64,1,.05-1c.08,1,.12,1.7.12,2.26v.58c-.09,2.53-.13,4.3-.13,5.32a115.3,115.3,0,0,0,.61,13h-.85q-.81,0-.81-.72-.39-6-.39-10.68V2.34A.76.76,0,0,1,17.43,1.62Z"/><path class="cls-1" d="M28.28.75h.58a7.81,7.81,0,0,1,4.5,3.71,20.79,20.79,0,0,1,2.22,9.28v.34a14.23,14.23,0,0,1-5,11.23,4.43,4.43,0,0,1-1.06.26c-.39,0-.63-.5-.72-1.49l.07-.14c-.12-1-.22-2.58-.27-4.73h-.12l.13.27v-.13c0-1.8,0-3.44.07-4.93Zm1.63,1.88V2.19q.06,7.71.27,12.17c-.05,1.21-.07,2.47-.07,3.76v.82c0,1.72.06,3.27.19,4.66a13.16,13.16,0,0,0,2.19-2.89A15.67,15.67,0,0,0,34,14.29V13.6A20,20,0,0,0,32,5C31,3.55,30.32,2.77,29.91,2.63Z"/><path class="cls-1" d="M47.42.75H48A7.82,7.82,0,0,1,52.5,4.46a20.79,20.79,0,0,1,2.22,9.28v.34a14.23,14.23,0,0,1-5,11.23,4.43,4.43,0,0,1-1.06.26c-.39,0-.63-.5-.72-1.49l.07-.14c-.12-1-.22-2.58-.27-4.73h-.12l.13.27v-.13c0-1.8,0-3.44.07-4.93Zm1.63,1.88V2.19q.06,7.71.27,12.17c0,1.21-.07,2.47-.07,3.76v.82c0,1.72.07,3.27.19,4.66a13.16,13.16,0,0,0,2.19-2.89,15.51,15.51,0,0,0,1.55-6.42V13.6A20,20,0,0,0,51.1,5C50.14,3.55,49.46,2.77,49.05,2.63Z"/><path class="cls-1" d="M61.23,1.64l.16.09c-.32,0-.48,0-.48-.11,2,.19,3,.47,3,.86V2.6a.82.82,0,0,1-.8.63l-2-.21-.87.06,0,.47q0,1.14.32,8.7h.07a5.13,5.13,0,0,0,.85-.06c1.08.09,1.92.13,2.53.13l.4.53v.29c0,.37-.24.55-.7.55s-1.07,0-2-.14c-.6,0-1,.07-1.14.07v-.07q0,4.83.46,10.8c.06,0,.09,0,.09,0q2.13-.12,2.73-.12a1.23,1.23,0,0,1,.75.62V25c0,.18-.18.38-.54.61-1.82.05-2.9.09-3.27.14-.85,0-1.28-.41-1.28-1.21q-.48-6.54-.48-10.89V11.5q-.35-6-.34-8.1a9.17,9.17,0,0,1-.21-1.28l.53-.39H60C60.29,1.73,60.69,1.7,61.23,1.64Z"/><path class="cls-1" d="M74.87,2.94l.44.51v.28q0,.63-2.34.63H71.06c.14,0,.21,0,.22-.05l.14,3.09c0,.29-.07.44-.07.46Q72,18.2,72,22.61A.77.77,0,0,1,72,23C72,23,72,23,72,23l.08.46c-.16.37-.38.55-.65.55h-.27c-.2,0-.43-.16-.7-.48a5.9,5.9,0,0,1,.07-.77q0-1.46-.62-14.75c0-1.43,0-2.69-.12-3.76l.15.09h-.06l-2.4.2A1.38,1.38,0,0,1,67,3.67c0-.19.22-.39.65-.61l.58.15q1.32-.12,1.86-.12h2.81A15.17,15.17,0,0,0,74.87,2.94Z"/><path class="cls-1" d="M86.92.75h.58A7.79,7.79,0,0,1,92,4.46a20.67,20.67,0,0,1,2.23,9.28v.34a14.21,14.21,0,0,1-5,11.23,4.39,4.39,0,0,1-1,.26c-.39,0-.63-.5-.72-1.49l.07-.14c-.13-1-.22-2.58-.28-4.73h-.12l.14.27v-.13c0-1.8,0-3.44.07-4.93Zm1.62,1.88V2.19q.08,7.71.28,12.17c0,1.21-.07,2.47-.07,3.76v.82c0,1.72.06,3.27.19,4.66a12.88,12.88,0,0,0,2.18-2.89,15.53,15.53,0,0,0,1.56-6.42V13.6A20,20,0,0,0,90.59,5C89.64,3.55,89,2.77,88.54,2.63Z"/><path class="cls-1" d="M99,1.16h.41a1,1,0,0,1,.67.89v.34q.6,11.12,1.49,17.88c.37,2.85.82,4.27,1.33,4.27a.93.93,0,0,0,.56-1c0-1.78-.18-6.3-.56-13.53.06-1.32.09-2.6.09-3.83V4.6l-.09-.46L103,4c0-.56-.11-1.22-.22-2l.56-.41h.38c.45,0,.73.75.83,2.26,0,.32,0,.48,0,.48,0,.45,0,.84,0,1.16v2.2l-.06.41c0-.19,0-.29.08-.29-.06.78-.08,1.28-.08,1.51v.27q.54,11.9.54,14c-.15,1.54-.88,2.31-2.2,2.31q-2.27,0-2.89-6.87-.75-5.86-1.45-17.47Z"/><path class="cls-1" d="M119.13.68h.07c.25,0,.49.18.7.53,0,.52,0,.77.07.77l-.14-.27q.48,7.52.48,12.63a38.74,38.74,0,0,1,.21,4.6v5.6h3.26a.72.72,0,0,1,.63.48v.27c0,.41-.53.62-1.59.62h-3.14c-.24,0-.47-.18-.7-.53v-.5a4.29,4.29,0,0,1,0-.82l0-.46v-5q-.27-9-.55-14.95l-.2-2.31A.86.86,0,0,1,119.13.68Z"/><path class="cls-1" d="M131.16,1.64l.16.09c-.32,0-.48,0-.48-.11,2,.19,3,.47,3,.86V2.6a.81.81,0,0,1-.8.63l-2-.21-.88.06,0,.47q0,1.14.32,8.7h.07a5.34,5.34,0,0,0,.86-.06c1.07.09,1.91.13,2.53.13l.39.53v.29c0,.37-.24.55-.7.55s-1.07,0-2-.14c-.61,0-1,.07-1.15.07v-.07q0,4.83.46,10.8c.06,0,.09,0,.09,0q2.13-.12,2.73-.12a1.21,1.21,0,0,1,.75.62V25c0,.18-.18.38-.54.61-1.81.05-2.9.09-3.27.14-.85,0-1.28-.41-1.28-1.21q-.48-6.54-.48-10.89V11.5q-.34-6-.34-8.1a8.53,8.53,0,0,1-.2-1.28l.53-.39H130C130.22,1.73,130.62,1.7,131.16,1.64Z"/><path class="cls-1" d="M137.64.75h.58a7.84,7.84,0,0,1,4.5,3.71,20.79,20.79,0,0,1,2.22,9.28v.34a14.23,14.23,0,0,1-5,11.23,4.54,4.54,0,0,1-1.06.26c-.39,0-.63-.5-.72-1.49l.07-.14c-.13-1-.22-2.58-.27-4.73h-.12l.13.27v-.13c0-1.8,0-3.44.07-4.93Zm1.63,1.88V2.19q.06,7.71.27,12.17c0,1.21-.07,2.47-.07,3.76v.82c0,1.72.06,3.27.19,4.66a13.16,13.16,0,0,0,2.19-2.89,15.67,15.67,0,0,0,1.55-6.42V13.6A20,20,0,0,0,141.32,5C140.36,3.55,139.68,2.77,139.27,2.63Z"/><path class="cls-1" d="M151.45,1.64l.15.09c-.32,0-.47,0-.47-.11,2,.19,3,.47,3,.86V2.6a.82.82,0,0,1-.81.63l-2-.21-.87.06,0,.47q0,1.14.33,8.7h.07a5.21,5.21,0,0,0,.85-.06c1.07.09,1.92.13,2.53.13l.39.53v.29c0,.37-.23.55-.7.55s-1.07,0-2-.14c-.6,0-1,.07-1.14.07v-.07q0,4.83.46,10.8c.05,0,.08,0,.08,0,1.43-.08,2.34-.12,2.74-.12a1.23,1.23,0,0,1,.75.62V25c0,.18-.18.38-.55.61-1.81.05-2.9.09-3.26.14-.86,0-1.28-.41-1.28-1.21q-.48-6.54-.48-10.89V11.5q-.34-6-.34-8.1a9.17,9.17,0,0,1-.21-1.28l.53-.39h.92Q150.63,1.73,151.45,1.64Z"/><path class="cls-1" d="M158.47,0H159a2,2,0,0,0,1.13.43,4.76,4.76,0,0,1,2.37,2.12,12.67,12.67,0,0,1,1.2,4.29v.68q0,4.62-2.2,6.34,2.59.62,3.09,7.25v2.61c0,.39,0,1,.08,1.86l-.49.33h-.53l-.51-.39c-.06-1-.09-1.75-.09-2.21V20.85a10.08,10.08,0,0,0-1.5-5.08A2.59,2.59,0,0,0,160,14.9h.38c0,.75.05,1.37.05,1.85v2.6c.09,2.25.14,3.53.14,3.82v.21a.91.91,0,0,1-.84.55c-.22,0-.48-.18-.79-.53l.09-.59c-.09-1.91-.14-3.18-.14-3.81V15.24c-.11,0-.25-.18-.41-.56v-.32c.18-.37.29-.55.33-.55q-.33-9-.89-13.4Zm1.18,1.64q.38,4.64.69,11.31,1.84-1.25,1.84-5.09v-1a10,10,0,0,0-1.43-4.39q-1-.87-1.35-.87Z"/><path class="cls-1" d="M180.13,1.64l.15.09c-.32,0-.48,0-.48-.11,2,.19,3,.47,3,.86V2.6a.8.8,0,0,1-.8.63l-2-.21-.87.06,0,.47q0,1.14.33,8.7h.06a5.34,5.34,0,0,0,.86-.06c1.07.09,1.91.13,2.53.13l.39.53v.29c0,.37-.23.55-.7.55s-1.07,0-2-.14c-.61,0-1,.07-1.15.07v-.07c0,3.22.16,6.82.46,10.8.06,0,.09,0,.09,0,1.42-.08,2.34-.12,2.73-.12a1.23,1.23,0,0,1,.76.62V25c0,.18-.19.38-.55.61-1.81.05-2.9.09-3.26.14-.86,0-1.29-.41-1.29-1.21Q178,18,178,13.69V11.5c-.22-4-.34-6.71-.34-8.1a10.23,10.23,0,0,1-.2-1.28l.53-.39h.92Q179.31,1.73,180.13,1.64Z"/><path class="cls-1" d="M188,2c1.86.1,3.3.14,4.34.14l.31.46c0,.61-.29.91-.86.91-1.17,0-2.32-.07-3.43-.07l.32,8.2v.05l0,.45a12.2,12.2,0,0,1,1.66-.09h1.77c.34,0,.56.29.65.87l-.61.5h-2.09a4.32,4.32,0,0,1-1.28-.07v.75q0,1,.14,8.21v.73l.06.41c0,.29,0,.43,0,.43l0,.32V25c0,.19-.17.37-.51.55h-.32c-.25,0-.49-.18-.7-.53l-.26-14.1-.29-.68.14.27c-.19-3.61-.28-6.31-.28-8.08A2.06,2.06,0,0,1,188,2Z"/><path class="cls-1" d="M203.35,2.94l.45.51v.28q0,.63-2.34.63h-1.92c.14,0,.21,0,.22-.05l.14,3.09c-.05.29-.07.44-.07.46q.61,10.34.62,14.75a.75.75,0,0,1,.07.34c-.05.07-.07.09-.07.07l.08.46c-.16.37-.37.55-.65.55h-.27c-.19,0-.43-.16-.7-.48a5.9,5.9,0,0,1,.07-.77q0-1.46-.62-14.75c0-1.43,0-2.69-.12-3.76l.16.09h-.07l-2.39.2a1.35,1.35,0,0,1-.45-.89c0-.19.22-.39.65-.61l.58.15q1.32-.12,1.86-.12h2.81A15.17,15.17,0,0,0,203.35,2.94Z"/><path class="cls-1" d="M210.07,1.64l.15.09c-.32,0-.48,0-.48-.11,2,.19,3,.47,3,.86V2.6a.82.82,0,0,1-.81.63L210,3l-.87.06,0,.47q0,1.14.33,8.7h.07a5.21,5.21,0,0,0,.85-.06c1.07.09,1.91.13,2.53.13l.39.53v.29c0,.37-.23.55-.7.55s-1.07,0-2-.14c-.6,0-1,.07-1.15.07v-.07q0,4.83.47,10.8c.05,0,.08,0,.08,0,1.43-.08,2.34-.12,2.74-.12a1.23,1.23,0,0,1,.75.62V25c0,.18-.19.38-.55.61-1.81.05-2.9.09-3.26.14-.86,0-1.29-.41-1.29-1.21Q208,18,208,13.69V11.5q-.34-6-.35-8.1a10.23,10.23,0,0,1-.2-1.28l.53-.39h.92Q209.25,1.73,210.07,1.64Z"/><path class="cls-1" d="M217.09,0h.55a2,2,0,0,0,1.13.43,4.76,4.76,0,0,1,2.37,2.12,12.67,12.67,0,0,1,1.2,4.29v.68q0,4.62-2.21,6.34,2.61.62,3.1,7.25v2.61c0,.39,0,1,.08,1.86l-.49.33h-.53l-.52-.39c-.05-1-.08-1.75-.08-2.21V20.85a10.08,10.08,0,0,0-1.5-5.08,2.59,2.59,0,0,0-1.56-.87H219c0,.75.05,1.37.05,1.85v2.6c.09,2.25.13,3.53.13,3.82v.21a.89.89,0,0,1-.83.55c-.22,0-.48-.18-.79-.53l.09-.59c-.1-1.91-.14-3.18-.14-3.81V15.24c-.11,0-.25-.18-.41-.56v-.32a1.89,1.89,0,0,1,.32-.55q-.31-9-.88-13.4Zm1.18,1.64q.38,4.64.69,11.31,1.84-1.25,1.84-5.09v-1a10,10,0,0,0-1.43-4.39q-1-.87-1.35-.87Z"/></g></g></svg>